<?xml version="1.0" encoding="utf-8"?>
<!-- Generator: Adobe Illustrator 19.0.0, SVG Export Plug-In . SVG Version: 6.00 Build 0)  -->
<svg version="1.1" id="Layer_1" xmlns="http://www.w3.org/2000/svg" xmlns:xlink="http://www.w3.org/1999/xlink" x="0px" y="0px"
	 viewBox="-1063 1065 32 32" style="enable-background:new -1063 1065 32 32;" xml:space="preserve">
<style type="text/css">
	.st0{fill:#5596E6;}
	.st1{fill:#FFFFFF;}
</style>
<path class="st0" d="M-1063,1081.2c0-8.6,7.1-15.6,15.9-15.6c8.8,0,15.9,7,15.9,15.6c0,8.6-7.1,15.6-15.9,15.6
	C-1055.9,1096.8-1063,1089.8-1063,1081.2"/>
<path class="st1" d="M-1051.9,1082.4c0,0,0.1,0,0.1,0c0.1-0.1,0.2-0.2,0.1-0.3l-1.2-2.1c0-0.1-0.1-0.1-0.2-0.1h-0.6
	c-1.3,0-2.4-1.1-2.4-2.4v-1.1c0-1.3,1.1-2.4,2.4-2.4h2.8c1.3,0,2.4,1.1,2.4,2.4v0.9c0,0.1,0.1,0.2,0.2,0.2c0.1,0,0.3-0.1,0.3-0.2
	v-0.9c0-1.6-1.3-2.9-2.9-2.9h-2.8c-1.6,0-2.9,1.3-2.9,2.9v1.1c0,1.6,1.3,2.9,2.9,2.9h0.5l1.1,1.9
	C-1052,1082.4-1052,1082.4-1051.9,1082.4 M-1040.5,1071.9h-2.9c-1.6,0-2.9,1.3-2.9,2.9c0,0.1,0.1,0.2,0.2,0.2c0.1,0,0.3-0.1,0.3-0.2
	c0-1.3,1.1-2.4,2.4-2.4h2.9c1.3,0,2.4,1.1,2.4,2.4v2.5c0,1.3-1.1,2.4-2.4,2.4h-0.5c-0.1,0-0.2,0-0.2,0.1l-1.2,2.1
	c-0.1,0.1,0,0.3,0.1,0.3c0,0,0.1,0,0.1,0c0.1,0,0.2,0,0.2-0.1l1.1-1.9h0.3c1.6,0,2.9-1.3,2.9-2.9v-2.5
	C-1037.6,1073.2-1038.9,1071.9-1040.5,1071.9 M-1045.3,1085.2c0.8-0.6,1.4-1.5,1.4-2.6c0-1.7-1.4-3.2-3.2-3.2s-3.2,1.4-3.2,3.2
	c0,1,0.5,2,1.4,2.6c-2.2,0.8-3.6,2.8-3.6,5c0,0.1,0.1,0.2,0.3,0.2c0.1,0,0.2-0.1,0.2-0.2c0-2.3,1.6-4.2,3.8-4.7
	c0.1,0,0.2-0.1,0.2-0.2c0-0.1-0.1-0.2-0.1-0.2c-1-0.4-1.6-1.4-1.6-2.4c0-1.5,1.2-2.7,2.7-2.7c1.5,0,2.7,1.2,2.7,2.7
	c0,1.1-0.6,2-1.6,2.4c-0.1,0-0.2,0.1-0.1,0.2c0,0.1,0.1,0.2,0.2,0.2c2.2,0.5,3.8,2.5,3.8,4.7c0,0.1,0.1,0.2,0.3,0.2
	c0.1,0,0.3-0.1,0.3-0.2C-1041.7,1087.9-1043.1,1085.9-1045.3,1085.2"/>
<path class="st1" d="M-1052.8,1077.2l0.6-1.4l0.6,1.4H-1052.8z M-1052.3,1075c-0.1,0-0.2,0.1-0.2,0.2l-1.3,3.1
	c-0.1,0.1,0,0.3,0.1,0.3c0.1,0.1,0.3,0,0.3-0.1l0.3-0.7h1.6l0.3,0.7c0,0.1,0.1,0.2,0.2,0.2c0,0,0.1,0,0.1,0c0.1-0.1,0.2-0.2,0.1-0.3
	l-1.3-3.1C-1052.1,1075-1052.2,1075-1052.3,1075L-1052.3,1075z M-1042,1073.5c-0.1,0-0.3,0.1-0.3,0.2v0.5h-1.4
	c-0.1,0-0.2,0.1-0.2,0.2c0,0.1,0.1,0.2,0.2,0.2h2.2c0,0.3-0.1,1-0.5,1.4c0,0-0.1,0.1-0.1,0.1c-0.2-0.2-0.4-0.5-0.5-0.8
	c0-0.1-0.2-0.2-0.3-0.2c-0.1,0-0.2,0.2-0.2,0.3c0.1,0.3,0.2,0.6,0.5,0.9c-0.3,0.1-0.7,0.2-1.2,0.2c-0.1,0-0.3,0.1-0.3,0.2
	c0,0.1,0.1,0.2,0.3,0.2c0.6,0,1.2-0.1,1.6-0.4c0.4,0.2,0.9,0.4,1.6,0.4c0.1,0,0.3-0.1,0.3-0.2c0-0.1-0.1-0.2-0.3-0.2
	c-0.5,0-0.8-0.1-1.2-0.2c0,0,0,0,0.1-0.1c0.5-0.6,0.6-1.3,0.6-1.7h0.5c0.1,0,0.2-0.1,0.2-0.2c0-0.1-0.1-0.2-0.2-0.2h-1.3v-0.5
	C-1041.8,1073.7-1041.9,1073.5-1042,1073.5"/>
</svg>
